<?xml version="1.0" encoding="UTF-8" standalone="no"?>
<!DOCTYPE svg PUBLIC "-//W3C//DTD SVG 1.1//EN"
 "http://www.w3.org/Graphics/SVG/1.1/DTD/svg11.dtd">
<!-- Generated by graphviz version 2.43.0 (0)
 -->
<!-- Title: %3 Pages: 1 -->
<svg width="265pt" height="332pt"
 viewBox="0.00 0.00 265.49 332.00" xmlns="http://www.w3.org/2000/svg" xmlns:xlink="http://www.w3.org/1999/xlink">
<g id="graph0" class="graph" transform="scale(1 1) rotate(0) translate(4 328)">
<title>%3</title>
<polygon fill="white" stroke="transparent" points="-4,4 -4,-328 261.49,-328 261.49,4 -4,4"/>
<!-- A -->
<g id="node1" class="node">
<title>A</title>
<ellipse fill="none" stroke="black" cx="211" cy="-306" rx="27" ry="18"/>
<text text-anchor="middle" x="211" y="-302.3" font-family="Times,serif" font-size="14.00">A</text>
</g>
<!-- D -->
<g id="node2" class="node">
<title>D</title>
<ellipse fill="none" stroke="black" cx="147" cy="-234" rx="27" ry="18"/>
<text text-anchor="middle" x="147" y="-230.3" font-family="Times,serif" font-size="14.00">D</text>
</g>
<!-- A&#45;&gt;D -->
<g id="edge1" class="edge">
<title>A&#45;&gt;D</title>
<path fill="none" stroke="black" d="M197.43,-290.15C188.69,-280.6 177.17,-267.99 167.34,-257.25"/>
<polygon fill="black" stroke="black" points="169.88,-254.84 160.55,-249.82 164.72,-259.57 169.88,-254.84"/>
</g>
<!-- J -->
<g id="node3" class="node">
<title>J</title>
<ellipse fill="none" stroke="black" cx="211" cy="-162" rx="27" ry="18"/>
<text text-anchor="middle" x="211" y="-158.3" font-family="Times,serif" font-size="14.00">J</text>
</g>
<!-- A&#45;&gt;J -->
<g id="edge2" class="edge">
<title>A&#45;&gt;J</title>
<path fill="none" stroke="black" d="M211,-287.87C211,-263.67 211,-219.21 211,-190.39"/>
<polygon fill="black" stroke="black" points="214.5,-190.19 211,-180.19 207.5,-190.19 214.5,-190.19"/>
</g>
<!-- B -->
<g id="node4" class="node">
<title>B</title>
<ellipse fill="none" stroke="black" cx="155" cy="-90" rx="27" ry="18"/>
<text text-anchor="middle" x="155" y="-86.3" font-family="Times,serif" font-size="14.00">B</text>
</g>
<!-- A&#45;&gt;B -->
<g id="edge3" class="edge">
<title>A&#45;&gt;B</title>
<path fill="none" stroke="black" d="M221.49,-289.24C240.15,-259.06 274.66,-191.86 247,-144 234.58,-122.51 209.77,-108.96 189.04,-100.95"/>
<polygon fill="black" stroke="black" points="190.15,-97.63 179.56,-97.55 187.79,-104.22 190.15,-97.63"/>
</g>
<!-- D&#45;&gt;J -->
<g id="edge9" class="edge">
<title>D&#45;&gt;J</title>
<path fill="none" stroke="black" d="M156.04,-216.76C163.97,-206.88 175.45,-194.17 185.96,-183.59"/>
<polygon fill="black" stroke="black" points="188.68,-185.83 193.38,-176.33 183.78,-180.83 188.68,-185.83"/>
</g>
<!-- D&#45;&gt;B -->
<g id="edge10" class="edge">
<title>D&#45;&gt;B</title>
<path fill="none" stroke="black" d="M143.39,-216.15C142.16,-191.92 144.4,-146.96 148.04,-118.05"/>
<polygon fill="black" stroke="black" points="151.55,-118.22 149.5,-107.82 144.62,-117.23 151.55,-118.22"/>
</g>
<!-- C -->
<g id="node5" class="node">
<title>C</title>
<ellipse fill="none" stroke="black" cx="123" cy="-18" rx="27" ry="18"/>
<text text-anchor="middle" x="123" y="-14.3" font-family="Times,serif" font-size="14.00">C</text>
</g>
<!-- D&#45;&gt;C -->
<g id="edge11" class="edge">
<title>D&#45;&gt;C</title>
<path fill="none" stroke="black" d="M136.52,-217.4C126.59,-193.93 114.43,-148.01 110,-108 108.24,-92.1 109.4,-87.99 110,-72 110.33,-63.31 110.96,-53.84 112.07,-45.34"/>
<polygon fill="black" stroke="black" points="115.56,-45.66 113.75,-35.22 108.66,-44.51 115.56,-45.66"/>
</g>
<!-- E -->
<g id="node6" class="node">
<title>E</title>
<ellipse fill="none" stroke="black" cx="27" cy="-162" rx="27" ry="18"/>
<text text-anchor="middle" x="27" y="-158.3" font-family="Times,serif" font-size="14.00">E</text>
</g>
<!-- D&#45;&gt;E -->
<g id="edge12" class="edge">
<title>D&#45;&gt;E</title>
<path fill="none" stroke="black" d="M125.19,-223.12C104.74,-212.37 74.47,-194.94 52.85,-181.6"/>
<polygon fill="black" stroke="black" points="54.5,-178.51 44.17,-176.17 50.79,-184.45 54.5,-178.51"/>
</g>
<!-- J&#45;&gt;D -->
<g id="edge16" class="edge">
<title>J&#45;&gt;D</title>
<path fill="none" stroke="black" d="M202.1,-179.06C194.07,-189.09 182.3,-202.11 171.62,-212.83"/>
<polygon fill="black" stroke="black" points="169.16,-210.34 164.45,-219.83 174.05,-215.35 169.16,-210.34"/>
</g>
<!-- J&#45;&gt;B -->
<g id="edge17" class="edge">
<title>J&#45;&gt;B</title>
<path fill="none" stroke="black" d="M194.74,-147.5C186.27,-138.47 176.21,-126.33 168.21,-115.61"/>
<polygon fill="black" stroke="black" points="170.99,-113.48 162.31,-107.41 165.31,-117.57 170.99,-113.48"/>
</g>
<!-- B&#45;&gt;D -->
<g id="edge4" class="edge">
<title>B&#45;&gt;D</title>
<path fill="none" stroke="black" d="M158.63,-108.27C159.81,-132.61 157.57,-177.24 153.95,-205.99"/>
<polygon fill="black" stroke="black" points="150.45,-205.76 152.5,-216.15 157.38,-206.75 150.45,-205.76"/>
</g>
<!-- B&#45;&gt;J -->
<g id="edge5" class="edge">
<title>B&#45;&gt;J</title>
<path fill="none" stroke="black" d="M171.4,-104.65C179.82,-113.63 189.76,-125.64 197.7,-136.27"/>
<polygon fill="black" stroke="black" points="194.88,-138.35 203.57,-144.41 200.56,-134.25 194.88,-138.35"/>
</g>
<!-- B&#45;&gt;C -->
<g id="edge6" class="edge">
<title>B&#45;&gt;C</title>
<path fill="none" stroke="black" d="M142.38,-73.81C137.61,-65.57 132.55,-55.15 128.59,-45.62"/>
<polygon fill="black" stroke="black" points="131.8,-44.2 124.93,-36.13 125.27,-46.72 131.8,-44.2"/>
</g>
<!-- C&#45;&gt;D -->
<g id="edge7" class="edge">
<title>C&#45;&gt;D</title>
<path fill="none" stroke="black" d="M129.18,-35.69C129.51,-46.12 128.46,-59.83 128,-72 127.4,-87.99 126.24,-92.1 128,-108 131.79,-142.23 141.24,-180.8 146.12,-205.92"/>
<polygon fill="black" stroke="black" points="142.69,-206.59 147.91,-215.81 149.58,-205.35 142.69,-206.59"/>
</g>
<!-- C&#45;&gt;B -->
<g id="edge8" class="edge">
<title>C&#45;&gt;B</title>
<path fill="none" stroke="black" d="M135.63,-34.2C140.37,-42.4 145.4,-52.75 149.35,-62.24"/>
<polygon fill="black" stroke="black" points="146.13,-63.63 153.01,-71.7 152.66,-61.11 146.13,-63.63"/>
</g>
<!-- E&#45;&gt;D -->
<g id="edge13" class="edge">
<title>E&#45;&gt;D</title>
<path fill="none" stroke="black" d="M48.93,-172.94C69.38,-183.7 99.6,-201.1 121.18,-214.41"/>
<polygon fill="black" stroke="black" points="119.51,-217.5 129.84,-219.83 123.22,-211.56 119.51,-217.5"/>
</g>
<!-- H -->
<g id="node7" class="node">
<title>H</title>
<ellipse fill="none" stroke="black" cx="27" cy="-90" rx="27" ry="18"/>
<text text-anchor="middle" x="27" y="-86.3" font-family="Times,serif" font-size="14.00">H</text>
</g>
<!-- E&#45;&gt;H -->
<g id="edge14" class="edge">
<title>E&#45;&gt;H</title>
<path fill="none" stroke="black" d="M21.16,-144.41C20.3,-136.51 20.05,-126.85 20.41,-117.94"/>
<polygon fill="black" stroke="black" points="23.9,-118.18 21.12,-107.96 16.92,-117.68 23.9,-118.18"/>
</g>
<!-- H&#45;&gt;E -->
<g id="edge15" class="edge">
<title>H&#45;&gt;E</title>
<path fill="none" stroke="black" d="M32.88,-107.96C33.71,-115.83 33.95,-125.37 33.58,-134.19"/>
<polygon fill="black" stroke="black" points="30.07,-134.18 32.84,-144.41 37.06,-134.69 30.07,-134.18"/>
</g>
</g>
</svg>
